<?xml version="1.0" encoding="UTF-8"?>
<svg version="1.1" xmlns="http://www.w3.org/2000/svg" width="500" height="500">
<path d="M0 0 C165 0 330 0 500 0 C500 165 500 330 500 500 C335 500 170 500 0 500 C0 335 0 170 0 0 Z " fill="#E0E0E0" transform="translate(0,0)"/>
<path d="M0 0 C0.96808594 0.04189453 1.93617188 0.08378906 2.93359375 0.12695312 C3.91714844 0.14951172 4.90070313 0.17207031 5.9140625 0.1953125 C8.33878845 0.25416507 10.76041358 0.33631882 13.18359375 0.43945312 C9.86956587 5.86863575 5.7738264 10.24504269 1.37109375 14.81445312 C-3.24724854 19.63660958 -7.78221742 24.4937654 -12.15307617 29.54199219 C-15.21728553 33.0375206 -18.42539651 36.40184163 -21.62890625 39.76953125 C-24.47808097 42.81330167 -26.81450195 45.74415717 -28.81640625 49.43945312 C-27.98109375 50.03757812 -27.14578125 50.63570313 -26.28515625 51.25195312 C-20.73897292 55.87377257 -17.26663939 62.42939632 -13.3828125 68.42382812 C-8.51561374 75.81945452 -8.51561374 75.81945452 -1.81640625 81.43945312 C0.77792067 82.07062878 0.77792067 82.07062878 3.30859375 81.81445312 C4.13617188 81.7809375 4.96375 81.74742187 5.81640625 81.71289062 C8.01754322 81.45863388 10.0530401 81.03836452 12.18359375 80.43945312 C14.04900002 85.14352111 15.5520238 89.38689349 16.18359375 94.43945312 C8.76109381 98.31939628 2.56850082 99.33894377 -5.81640625 98.43945312 C-18.63017755 94.39776854 -24.67164342 83.93519921 -31.59082031 73.31103516 C-33.39712998 70.55263477 -35.24099369 67.83058639 -37.12890625 65.12695312 C-38.02029297 63.83337891 -38.02029297 63.83337891 -38.9296875 62.51367188 C-40.9864361 59.949066 -40.9864361 59.949066 -45.81640625 58.43945312 C-45.81640625 71.63945312 -45.81640625 84.83945312 -45.81640625 98.43945312 C-51.75640625 98.43945312 -57.69640625 98.43945312 -63.81640625 98.43945312 C-64.80049842 76.08650237 -64.90507032 53.74722872 -64.87890625 31.37695312 C-64.87805023 30.63990143 -64.87719421 29.90284973 -64.87631226 29.14346313 C-64.8648013 19.90876704 -64.84379131 10.67411677 -64.81640625 1.43945312 C-59.20640625 1.43945312 -53.59640625 1.43945312 -47.81640625 1.43945312 C-47.15640625 15.29945313 -46.49640625 29.15945312 -45.81640625 43.43945312 C-43.50640625 40.79945313 -41.19640625 38.15945312 -38.81640625 35.43945312 C-37.15565265 33.60076164 -35.48963717 31.76679742 -33.81640625 29.93945312 C-30.3874663 26.18001294 -27.0072024 22.38728242 -23.671875 18.54492188 C-20.54875394 15.00100135 -17.34458739 11.53074945 -14.1484375 8.05273438 C-11.74830294 5.54043479 -11.74830294 5.54043479 -10.1875 2.62695312 C-6.88275356 -0.42190685 -4.37393378 -0.07541265 0 0 Z " fill="#0498B2" transform="translate(326.81640625,216.560546875)"/>
<path d="M0 0 C0.74822021 0.00644531 1.49644043 0.01289063 2.26733398 0.01953125 C7.46308869 0.09174936 12.54108811 0.438931 17.6875 1.1875 C17.6875 7.1275 17.6875 13.0675 17.6875 19.1875 C15.6875 16.1875 15.6875 16.1875 14.8125 13.75 C13.06817055 9.77680513 10.96970535 7.79807398 7.0625 5.9375 C0.69089396 4.52158755 -4.9486598 3.97753005 -10.75 7.375 C-13.95115188 9.48014163 -15.65157446 11.73178329 -17.3125 15.1875 C-18.13626272 20.61060455 -18.63365047 27.04502089 -15.625 31.875 C-11.52096037 36.56697789 -6.12569014 40.1446689 -1.13134766 43.83300781 C4.23517669 47.82944769 9.46615873 52.00423438 14.6875 56.1875 C15.56921875 56.88746094 16.4509375 57.58742187 17.359375 58.30859375 C25.75756059 65.31177871 30.99610132 73.7509444 32.0234375 84.80078125 C32.13380251 95.25234796 30.85472363 103.75035203 23.515625 111.58984375 C13.32163229 120.49869635 1.81719533 122.23979352 -11.23535156 121.43017578 C-19.11502991 120.50958337 -27.29165446 116.38370887 -32.3125 110.1875 C-38.50014445 101.40903783 -39.89779892 92.59037657 -38.3125 82.1875 C-36.24820667 76.34831512 -33.34544977 70.91654795 -29.3125 66.1875 C-28.6525 66.1875 -27.9925 66.1875 -27.3125 66.1875 C-28.55976689 69.40960612 -29.93407829 72.54891053 -31.375 75.6875 C-34.95025312 83.75507859 -35.51825275 91.62488898 -32.40234375 99.953125 C-28.87733667 107.18002123 -23.58669568 111.36671183 -16.19921875 114.33984375 C-6.54677102 117.17418902 2.83552197 114.73934167 11.6015625 110.1953125 C17.34081832 106.16311738 20.03955297 98.88031091 21.20703125 92.2265625 C21.66424314 84.12434256 19.28185016 77.80741536 14.6875 71.1875 C11.62910223 67.79846463 8.28339571 64.99091181 4.6875 62.1875 C3.64851563 61.37539062 2.60953125 60.56328125 1.5390625 59.7265625 C-0.65280246 58.02880035 -2.85465122 56.34487781 -5.0625 54.66796875 C-24.42824135 39.93040904 -24.42824135 39.93040904 -27.3125 31.1875 C-28.43292564 22.84917443 -27.23830353 16.05988613 -22.3125 9.1875 C-15.78540668 1.96346859 -9.71364861 -0.17285995 0 0 Z " fill="#060606" transform="translate(226.3125,186.8125)"/>
<path d="M0 0 C1.1446875 0.3403125 1.1446875 0.3403125 2.3125 0.6875 C2.9375 4.0625 2.9375 4.0625 3.3125 7.6875 C1.3125 9.6875 1.3125 9.6875 -1.1875 9.9375 C-3.6875 9.6875 -3.6875 9.6875 -5.6875 7.6875 C-6.05546448 4.81737704 -6.06259409 3.27975382 -4.5 0.8125 C-2.6875 -0.3125 -2.6875 -0.3125 0 0 Z " fill="#23A2B9" transform="translate(332.6875,319.3125)"/>
<path d="M0 0 C1.9375 0.75 1.9375 0.75 3.9375 2.75 C3.36931818 8.31818182 3.36931818 8.31818182 1.9375 9.75 C-0.5 9.9375 -0.5 9.9375 -3.0625 9.75 C-5.0625 7.75 -5.0625 7.75 -5.375 4.75 C-5.271875 3.76 -5.16875 2.77 -5.0625 1.75 C-2.0625 -0.25 -2.0625 -0.25 0 0 Z " fill="#2AA4BA" transform="translate(281.0625,319.25)"/>
<path d="M0 0 C1.9375 0.75 1.9375 0.75 3.9375 2.75 C3.36931818 8.31818182 3.36931818 8.31818182 1.9375 9.75 C-0.5 9.9375 -0.5 9.9375 -3.0625 9.75 C-5.0625 7.75 -5.0625 7.75 -5.375 4.75 C-5.271875 3.76 -5.16875 2.77 -5.0625 1.75 C-2.0625 -0.25 -2.0625 -0.25 0 0 Z " fill="#2AA4BA" transform="translate(207.0625,319.25)"/>
<path d="M0 0 C1.65 0 3.3 0 5 0 C5.66 0.66 6.32 1.32 7 2 C6.625 4.625 6.625 4.625 6 7 C6.66 7.33 7.32 7.66 8 8 C8 8.66 8 9.32 8 10 C6.0625 9.625 6.0625 9.625 4 9 C3.67 8.34 3.34 7.68 3 7 C2.67 7.99 2.34 8.98 2 10 C1.34 10 0.68 10 0 10 C0 6.7 0 3.4 0 0 Z " fill="#46ADC0" transform="translate(222,319)"/>
<path d="M0 0 C2.31 0.33 4.62 0.66 7 1 C7 2.65 7 4.3 7 6 C5.35 6 3.7 6 2 6 C2 7.32 2 8.64 2 10 C1.34 10 0.68 10 0 10 C0 6.7 0 3.4 0 0 Z " fill="#54B2C3" transform="translate(183,319)"/>
<path d="M0 0 C2.64 0 5.28 0 8 0 C8 0.66 8 1.32 8 2 C7.01 2 6.02 2 5 2 C5 4.64 5 7.28 5 10 C4.34 10 3.68 10 3 10 C3 7.36 3 4.72 3 2 C2.01 2 1.02 2 0 2 C0 1.34 0 0.68 0 0 Z " fill="#30A6BC" transform="translate(240,319)"/>
<path d="M0 0 C1.98 0 3.96 0 6 0 C6 0.66 6 1.32 6 2 C4.68 2 3.36 2 2 2 C2 2.99 2 3.98 2 5 C2.99 5.33 3.98 5.66 5 6 C4.01 6 3.02 6 2 6 C2 7.32 2 8.64 2 10 C1.34 10 0.68 10 0 10 C0 6.7 0 3.4 0 0 Z " fill="#28A4BA" transform="translate(259,319)"/>
<path d="M0 0 C2.0625 0.4375 2.0625 0.4375 4 1 C4 2.65 4 4.3 4 6 C2.35 6 0.7 6 -1 6 C-1.042721 4.33388095 -1.04063832 2.66617115 -1 1 C-0.67 0.67 -0.34 0.34 0 0 Z " fill="#D6DDDE" transform="translate(330,321)"/>
<path d="M0 0 C2.0625 0.4375 2.0625 0.4375 4 1 C3.67 2.65 3.34 4.3 3 6 C1.68 6 0.36 6 -1 6 C-1.042721 4.33388095 -1.04063832 2.66617115 -1 1 C-0.67 0.67 -0.34 0.34 0 0 Z " fill="#D7DDDE" transform="translate(279,321)"/>
<path d="M0 0 C2.0625 0.4375 2.0625 0.4375 4 1 C3.67 2.65 3.34 4.3 3 6 C1.68 6 0.36 6 -1 6 C-1.042721 4.33388095 -1.04063832 2.66617115 -1 1 C-0.67 0.67 -0.34 0.34 0 0 Z " fill="#D7DDDE" transform="translate(205,321)"/>
<path d="M0 0 C0.66 0 1.32 0 2 0 C0.7580393 3.43927579 -0.55740284 6.25207819 -3 9 C-3.66 9 -4.32 9 -5 9 C-3.7580393 5.56072421 -2.44259716 2.74792181 0 0 Z " fill="#1F1F1F" transform="translate(197,253)"/>
</svg>
