<?xml version="1.0" encoding="UTF-8"?>
<svg version="1.1" xmlns="http://www.w3.org/2000/svg" width="128" height="128">
<path d="M0 0 C7.0682185 5.43709116 10.01130733 10.22025705 13.18359375 18.6796875 C13.18359375 25.2796875 13.18359375 31.8796875 13.18359375 38.6796875 C-1.66640625 38.6796875 -16.51640625 38.6796875 -31.81640625 38.6796875 C-29.07147989 46.44729252 -29.07147989 46.44729252 -23.81640625 51.6796875 C-19.49430527 53.12038783 -15.33708452 53.11297935 -10.81640625 52.6796875 C-7.89094185 51.3287587 -7.89094185 51.3287587 -5.81640625 49.6796875 C-5.15640625 49.6796875 -4.49640625 49.6796875 -3.81640625 49.6796875 C-3.56890625 49.0815625 -3.32140625 48.4834375 -3.06640625 47.8671875 C-1.57391786 45.25533283 -0.40392688 44.21821328 2.18359375 42.6796875 C5.19921875 42.38671875 5.19921875 42.38671875 8.43359375 42.4921875 C10.05007812 42.53279297 10.05007812 42.53279297 11.69921875 42.57421875 C12.5190625 42.60902344 13.33890625 42.64382812 14.18359375 42.6796875 C10.75047877 52.58290379 6.5874529 60.01115422 -2.81640625 65.1796875 C-10.16458086 68.01962327 -19.24872189 67.92814788 -26.7890625 65.8671875 C-34.38860837 62.48439119 -39.88272831 56.631893 -43.5078125 49.22265625 C-45.54112699 43.40260772 -45.32977819 37.4022911 -45.31640625 31.3046875 C-45.34476563 30.13679688 -45.373125 28.96890625 -45.40234375 27.765625 C-45.42414014 18.04443531 -43.0501742 11.08772757 -36.56640625 3.8046875 C-26.82146658 -4.98445851 -11.46094815 -6.84178018 0 0 Z M-29.09765625 15.29296875 C-31.51473929 19.18619893 -32.04321982 22.04056894 -32.81640625 26.6796875 C-21.59640625 26.6796875 -10.37640625 26.6796875 1.18359375 26.6796875 C-0.37522139 17.91990281 -0.37522139 17.91990281 -5.81640625 12.6796875 C-6.53828125 12.0815625 -7.26015625 11.4834375 -8.00390625 10.8671875 C-15.37502462 7.75493752 -23.93733988 8.79537527 -29.09765625 15.29296875 Z " fill="#7C43FF" transform="translate(50.81640625,33.3203125)"/>
<path d="M0 0 C13.50847041 -0.77338571 13.50847041 -0.77338571 18.375 1.75 C19.6015625 3.1015625 19.6015625 3.1015625 21 5 C21.75023438 5.95648438 22.50046875 6.91296875 23.2734375 7.8984375 C26.32115664 11.8377318 29.23697958 15.85546937 32 20 C32.66 20 33.32 20 34 20 C35.4464434 18.43687325 35.4464434 18.43687325 36.8984375 16.38671875 C37.46046875 15.63326172 38.0225 14.87980469 38.6015625 14.10351562 C39.18679687 13.30623047 39.77203125 12.50894531 40.375 11.6875 C41.52343582 10.12506333 42.67692712 8.56632742 43.8359375 7.01171875 C44.34688965 6.31522217 44.8578418 5.61872559 45.38427734 4.90112305 C47.11655284 2.86285932 48.73016393 1.4161246 51 0 C53.6729445 -0.21326685 56.0926212 -0.28545631 58.75 -0.1875 C59.44738281 -0.17396484 60.14476562 -0.16042969 60.86328125 -0.14648438 C62.57585541 -0.1112945 64.28802941 -0.05749155 66 0 C61.89738137 6.35381365 57.4974019 12.37762428 52.8125 18.3125 C51.58959741 19.87090047 50.36693269 21.42948765 49.14453125 22.98828125 C48.61190674 23.66415283 48.07928223 24.34002441 47.53051758 25.03637695 C47.02544678 25.68437256 46.52037598 26.33236816 46 27 C45.41951904 27.6602417 44.83903809 28.3204834 44.2409668 29.00073242 C42.78895845 30.89824981 42.78895845 30.89824981 43.16430664 33.03540039 C44.03912192 35.09197023 45.01313853 36.66005632 46.37109375 38.43359375 C46.85868164 39.0766748 47.34626953 39.71975586 47.84863281 40.38232422 C48.37295898 41.06053223 48.89728516 41.73874023 49.4375 42.4375 C49.97084961 43.13891113 50.50419922 43.84032227 51.05371094 44.56298828 C53.68564373 48.01730244 56.3462631 51.4487084 59.01953125 54.87109375 C59.48109619 55.46414307 59.94266113 56.05719238 60.41821289 56.66821289 C61.29133255 57.78718256 62.16927265 58.9024112 63.05249023 60.01342773 C66 63.77925048 66 63.77925048 66 66 C63.60225255 66.13572155 61.21224755 66.23436868 58.8125 66.3125 C58.13896484 66.35439453 57.46542969 66.39628906 56.77148438 66.43945312 C53.11698695 66.52858721 51.30353061 66.23861894 48.40625 63.9609375 C47.6121875 62.98382813 46.818125 62.00671875 46 61 C45.50266357 60.41081787 45.00532715 59.82163574 44.49291992 59.21459961 C42.86088121 57.26999535 41.27127395 55.29654732 39.6875 53.3125 C39.13771484 52.63638672 38.58792969 51.96027344 38.02148438 51.26367188 C37.50263672 50.61591797 36.98378906 49.96816406 36.44921875 49.30078125 C35.97830811 48.71466064 35.50739746 48.12854004 35.0222168 47.5246582 C34 46 34 46 34 44 C33.34 44 32.68 44 32 44 C31.58899048 44.87180908 31.58899048 44.87180908 31.16967773 45.76123047 C29.21367846 49.5050237 26.5963588 52.75656464 24.0625 56.125 C23.52431641 56.85332031 22.98613281 57.58164063 22.43164062 58.33203125 C21.90892578 59.02941406 21.38621094 59.72679687 20.84765625 60.4453125 C20.37336182 61.07969238 19.89906738 61.71407227 19.41040039 62.36767578 C18 64 18 64 15 66 C12.39754502 66.14221065 9.90882316 66.18802932 7.3125 66.125 C6.61060547 66.11597656 5.90871094 66.10695313 5.18554688 66.09765625 C3.45688475 66.07413704 1.72839855 66.03826713 0 66 C1.55826205 62.56218475 3.58941401 59.74721533 5.875 56.75 C6.66390625 55.70328125 7.4528125 54.6565625 8.265625 53.578125 C10.25157599 50.96472004 12.26970505 48.37840429 14.296875 45.796875 C14.84875488 45.0843457 15.40063477 44.37181641 15.96923828 43.63769531 C17.06127518 42.22780516 18.16364889 40.82585297 19.27685547 39.43261719 C19.77588379 38.78454102 20.27491211 38.13646484 20.7890625 37.46875 C21.23975098 36.89576172 21.69043945 36.32277344 22.15478516 35.73242188 C23.18905174 34.00975828 23.18905174 34.00975828 22.75463867 31.95019531 C21.59518885 28.95385588 19.68318186 26.75812968 17.6875 24.25 C16.78676602 23.10494819 15.88707628 21.95907439 14.98828125 20.8125 C14.26825928 19.89791016 14.26825928 19.89791016 13.53369141 18.96484375 C10.77116242 15.42571079 8.0728541 11.83852934 5.375 8.25 C4.57582153 7.19474121 4.57582153 7.19474121 3.76049805 6.11816406 C0 1.11733757 0 1.11733757 0 0 Z " fill="#7148FF" transform="translate(56,32)"/>
<path d="M0 0 C7.0621287 3.53106435 11.40194728 8.82166559 14.203125 16.1015625 C15.203125 19.1015625 15.203125 19.1015625 15.203125 32.1015625 C0.023125 32.1015625 -15.156875 32.1015625 -30.796875 32.1015625 C-28.77036715 43.03161426 -28.77036715 43.03161426 -22.421875 51.4140625 C-16.60525303 55.15331948 -10.59883331 56.12290918 -3.796875 55.1015625 C0.75270238 53.22867994 4.12746876 50.29376466 7.515625 46.7890625 C8.4025 45.9021875 9.289375 45.0153125 10.203125 44.1015625 C11.193125 44.1015625 12.183125 44.1015625 13.203125 44.1015625 C10.6323883 51.59954453 6.07411894 55.54855356 -0.796875 59.1015625 C-7.92177107 61.41715372 -15.94252242 60.5393843 -22.578125 57.20703125 C-28.30419133 53.65335412 -32.41741723 47.6837822 -34.35913086 41.23388672 C-35.16819863 37.29278358 -34.98146769 33.29824948 -34.984375 29.2890625 C-34.99662109 28.41185547 -35.00886719 27.53464844 -35.02148438 26.63085938 C-35.04188961 17.53692479 -33.16506946 10.74845256 -26.796875 4.1015625 C-18.41918564 -2.31235847 -9.97165086 -3.7306526 0 0 Z M-23.078125 12.71484375 C-25.49520804 16.60807393 -26.02368857 19.46244394 -26.796875 24.1015625 C-15.576875 24.1015625 -4.356875 24.1015625 7.203125 24.1015625 C5.64430986 15.34177781 5.64430986 15.34177781 0.203125 10.1015625 C-0.51875 9.5034375 -1.240625 8.9053125 -1.984375 8.2890625 C-9.35549337 5.17681252 -17.91780863 6.21725027 -23.078125 12.71484375 Z " fill="#A7B4FF" transform="translate(44.796875,35.8984375)"/>
<path d="M0 0 C3.8309271 0.50646155 5.65779524 1.14110315 8.125 4.125 C8.70894531 4.82882813 9.29289062 5.53265625 9.89453125 6.2578125 C13.11774016 10.45575805 16.2245241 14.74082328 19.26806641 19.07080078 C20.46503373 20.74842331 21.72731499 22.37906785 23 24 C23.66 24 24.32 24 25 24 C26.31641905 22.60074623 26.31641905 22.60074623 27.609375 20.74609375 C28.11726563 20.05580078 28.62515625 19.36550781 29.1484375 18.65429688 C29.67695312 17.92275391 30.20546875 17.19121094 30.75 16.4375 C32.81093578 13.60759697 34.88824243 10.79222739 37 8 C37.51240234 7.32211426 38.02480469 6.64422852 38.55273438 5.94580078 C39.05611328 5.31528809 39.55949219 4.68477539 40.078125 4.03515625 C40.5205957 3.47320557 40.96306641 2.91125488 41.41894531 2.33227539 C43.49950895 0.57908889 45.34187927 0.3559283 48 0 C43.32634018 7.29872589 38.11704598 14.01668823 32.59570312 20.68945312 C31.98791016 21.44806641 31.38011719 22.20667969 30.75390625 22.98828125 C30.20033447 23.66415283 29.6467627 24.34002441 29.07641602 25.03637695 C27.80468178 26.92588501 27.80468178 26.92588501 28.17529297 29.02954102 C29.05545168 31.1324898 30.05962505 32.72676784 31.44140625 34.5390625 C32.18825684 35.52700806 32.18825684 35.52700806 32.95019531 36.53491211 C33.48225586 37.22464111 34.01431641 37.91437012 34.5625 38.625 C35.10100586 39.33342041 35.63951172 40.04184082 36.19433594 40.77172852 C39.93629088 45.67565307 43.75654931 50.5105143 47.671875 55.27734375 C49 57 49 57 49 58 C46.796875 58.328125 46.796875 58.328125 44 58 C41.640625 55.796875 41.640625 55.796875 39.25 52.75 C38.82605957 52.21729492 38.40211914 51.68458984 37.96533203 51.13574219 C36.62411456 49.43796078 35.30924116 47.72253362 34 46 C33.55946289 45.42378906 33.11892578 44.84757812 32.66503906 44.25390625 C30.0771599 40.8598402 27.52565337 37.44074517 25 34 C21.82674903 35.3597823 20.14765208 36.73588489 18.125 39.51953125 C17.61453125 40.21240234 17.1040625 40.90527344 16.578125 41.61914062 C16.05734375 42.34294922 15.5365625 43.06675781 15 43.8125 C13.00284469 46.54375819 11.00215282 49.27240379 9 52 C8.28328125 52.97710937 7.5665625 53.95421875 6.828125 54.9609375 C4.41514297 57.65234053 2.52561938 57.75961686 -1 58 C4.25 51 4.25 51 9.5 44 C10.26054688 42.9790625 11.02109375 41.958125 11.8046875 40.90625 C13.1579509 39.11474116 14.53379209 37.33972705 15.9453125 35.59375 C16.49960938 34.9028125 17.05390625 34.211875 17.625 33.5 C18.35589844 32.61828125 18.35589844 32.61828125 19.1015625 31.71875 C20.19265844 30.04064856 20.19265844 30.04064856 19.72680664 28.12963867 C18.90644655 25.72587613 17.84269396 24.1969392 16.26953125 22.20703125 C15.71612061 21.49796631 15.16270996 20.78890137 14.5925293 20.05834961 C13.71141479 18.94665405 13.71141479 18.94665405 12.8125 17.8125 C8.29598178 12.02191826 3.89185691 6.23763368 0 0 Z " fill="#A8B1FF" transform="translate(65,36)"/>
<path d="M0 0 C5.87635568 3.48104117 9.5642252 7.99173164 12.61328125 14.08984375 C12.61328125 17.71984375 12.61328125 21.34984375 12.61328125 25.08984375 C-1.24671875 25.08984375 -15.10671875 25.08984375 -29.38671875 25.08984375 C-29.38671875 15.2116443 -29.37613978 11.09202544 -22.859375 4.55859375 C-16.27429387 -1.20544673 -8.44966834 -3.22221395 0 0 Z M-21.66796875 9.703125 C-24.08505179 13.59635518 -24.61353232 16.45072519 -25.38671875 21.08984375 C-14.16671875 21.08984375 -2.94671875 21.08984375 8.61328125 21.08984375 C7.05446611 12.33005906 7.05446611 12.33005906 1.61328125 7.08984375 C0.89140625 6.49171875 0.16953125 5.89359375 -0.57421875 5.27734375 C-7.94533712 2.16509377 -16.50765238 3.20553152 -21.66796875 9.703125 Z " fill="#5255FF" transform="translate(43.38671875,38.91015625)"/>
</svg>
