<?xml version="1.0" encoding="UTF-8"?>
<svg version="1.1" xmlns="http://www.w3.org/2000/svg" width="1920" height="481">
<path d="M0 0 C633.6 0 1267.2 0 1920 0 C1920 158.73 1920 317.46 1920 481 C1286.4 481 652.8 481 0 481 C0 322.27 0 163.54 0 0 Z " fill="#1D1920" transform="translate(0,0)"/>
<path d="M0 0 C0.80566406 0.25265625 1.61132812 0.5053125 2.44140625 0.765625 C3.10011719 1.09046875 3.75882813 1.4153125 4.4375 1.75 C4.7675 2.74 5.0975 3.73 5.4375 4.75 C6.4275 4.75 7.4175 4.75 8.4375 4.75 C8.7675 5.74 9.0975 6.73 9.4375 7.75 C8.7775 7.75 8.1175 7.75 7.4375 7.75 C7.1075 8.41 6.7775 9.07 6.4375 9.75 C5.7775 9.09 5.1175 8.43 4.4375 7.75 C3.7775 7.75 3.1175 7.75 2.4375 7.75 C2.1075 8.41 1.7775 9.07 1.4375 9.75 C1.004375 9.13125 0.57125 8.5125 0.125 7.875 C-1.79782049 5.4536705 -3.80860578 4.12694711 -6.5625 2.75 C-6.5625 1.76 -6.5625 0.77 -6.5625 -0.25 C-3.86689815 -1.59780093 -2.819883 -0.92336458 0 0 Z " fill="#312445" transform="translate(1842.5625,194.25)"/>
<path d="M0 0 C0.66 0.33 1.32 0.66 2 1 C2.99 1.33 3.98 1.66 5 2 C8 5 8 5 8 8 C5.75 8.375 5.75 8.375 3 8 C0.6875 5 0.6875 5 -1 2 C-0.67 1.34 -0.34 0.68 0 0 Z M10 3 C12.64 3.33 15.28 3.66 18 4 C18 4.99 18 5.98 18 7 C17.01 7 16.02 7 15 7 C14.34 7.66 13.68 8.32 13 9 C12.34 8.34 11.68 7.68 11 7 C10.34 6.67 9.68 6.34 9 6 C9.33 5.01 9.66 4.02 10 3 Z " fill="#251D2C" transform="translate(147,204)"/>
<path d="M0 0 C1.69752187 0.25245197 3.38471545 0.57645775 5.0625 0.9375 C5.98160156 1.13214844 6.90070313 1.32679688 7.84765625 1.52734375 C8.91306641 1.76130859 8.91306641 1.76130859 10 2 C10.33 3.98 10.66 5.96 11 8 C10.01 8 9.02 8 8 8 C7.67 8.66 7.34 9.32 7 10 C7 9.01 7 8.02 7 7 C5.68 6.34 4.36 5.68 3 5 C2.67 5.66 2.34 6.32 2 7 C0.5 5.6875 0.5 5.6875 -1 4 C-1 1 -1 1 0 0 Z " fill="#2C1E2D" transform="translate(1708,228)"/>
<path d="M0 0 C1.32 0.33 2.64 0.66 4 1 C2.54744301 4.82946843 0.57104439 6.12050295 -3 8 C-3.33 7.34 -3.66 6.68 -4 6 C-4.99 6 -5.98 6 -7 6 C-7 5.01 -7 4.02 -7 3 C-6.01 3 -5.02 3 -4 3 C-3.67 2.34 -3.34 1.68 -3 1 C-3 1.66 -3 2.32 -3 3 C-2.34 3 -1.68 3 -1 3 C-0.67 2.01 -0.34 1.02 0 0 Z " fill="#3B253D" transform="translate(41,247)"/>
<path d="M0 0 C3.27275026 0 5.846632 0.29925156 9 1 C9 1.99 9 2.98 9 4 C8.34 4 7.68 4 7 4 C6.67 4.99 6.34 5.98 6 7 C4.02 6.01 2.04 5.02 0 4 C0 2.68 0 1.36 0 0 Z " fill="#312239" transform="translate(83,238)"/>
<path d="M0 0 C3.465 1.485 3.465 1.485 7 3 C6.42655063 5.86724686 6.1385485 6.8614515 4 9 C4 8.34 4 7.68 4 7 C3.34 7 2.68 7 2 7 C1.34 6.34 0.68 5.68 0 5 C-0.66 5 -1.32 5 -2 5 C-1.34 3.35 -0.68 1.7 0 0 Z M4 3 C5 5 5 5 5 5 Z " fill="#312545" transform="translate(121,299)"/>
<path d="M0 0 C2.46800047 1.15173355 4.04783565 2.04783565 6 4 C6.625 6.125 6.625 6.125 7 8 C4.03 7.505 4.03 7.505 1 7 C0 2.25 0 2.25 0 0 Z " fill="#251D2C" transform="translate(1779,274)"/>
<path d="M0 0 C0.598125 0.309375 1.19625 0.61875 1.8125 0.9375 C4.3763939 2.18281989 6.18541165 2.15636602 9 2 C9 2.66 9 3.32 9 4 C8.34 4 7.68 4 7 4 C6.67 4.66 6.34 5.32 6 6 C3 6 3 6 0.3125 3.5 C-0.450625 2.675 -1.21375 1.85 -2 1 C-1.34 0.67 -0.68 0.34 0 0 Z " fill="#302239" transform="translate(1771,209)"/>
<path d="M0 0 C0.99 0.66 1.98 1.32 3 2 C2.34 2 1.68 2 1 2 C0.67 2.66 0.34 3.32 0 4 C-0.99 4.33 -1.98 4.66 -3 5 C-3.33 5.66 -3.66 6.32 -4 7 C-6 5.625 -6 5.625 -8 4 C-8 3.34 -8 2.68 -8 2 C-6.865625 1.855625 -5.73125 1.71125 -4.5625 1.5625 C-1.19222799 1.38828522 -1.19222799 1.38828522 0 0 Z " fill="#2D2035" transform="translate(1796,238)"/>
<path d="M0 0 C2.64 0.66 5.28 1.32 8 2 C8 2.66 8 3.32 8 4 C5.69 4.33 3.38 4.66 1 5 C0.34 4.01 -0.32 3.02 -1 2 C-0.67 1.34 -0.34 0.68 0 0 Z " fill="#3F263C" transform="translate(1707,133)"/>
<path d="M0 0 C0.99 0.33 1.98 0.66 3 1 C2.34 2.98 1.68 4.96 1 7 C0.34 7 -0.32 7 -1 7 C-1.66 5.68 -2.32 4.36 -3 3 C-2.01 2.67 -1.02 2.34 0 2 C0 1.34 0 0.68 0 0 Z " fill="#3B253D" transform="translate(1752,164)"/>
<path d="M0 0 C0.99 0 1.98 0 3 0 C3.625 1.8125 3.625 1.8125 4 4 C3.01 5.485 3.01 5.485 2 7 C0.4375 5.75 0.4375 5.75 -1 4 C-0.6875 1.8125 -0.6875 1.8125 0 0 Z " fill="#3D263D" transform="translate(1724,142)"/>
<path d="M0 0 C3 1 3 1 4.25 2.875 C5 5 5 5 4 8 C3.67 7.01 3.34 6.02 3 5 C0.99983534 3.79117904 0.99983534 3.79117904 -1 3 C-0.67 2.01 -0.34 1.02 0 0 Z " fill="#2F2445" transform="translate(1876,221)"/>
<path d="M0 0 C2.125 0.9375 2.125 0.9375 4 2 C3.67 2.99 3.34 3.98 3 5 C1.35 5.33 -0.3 5.66 -2 6 C-2 4.35 -2 2.7 -2 1 C-1.34 0.67 -0.68 0.34 0 0 Z " fill="#251D2C" transform="translate(140,200)"/>
</svg>
